<svg width="24" height="24" viewBox="0 0 24 24" fill="none" xmlns="http://www.w3.org/2000/svg">
<g clip-path="url(#clip0_3512_2593)">
<path d="M10.2347 7.01045L9.03408 1.17891C8.79722 0.0286196 7.37657 -0.397157 6.54608 0.433286L3.98724 2.99212L9.12011 8.12504L10.2347 7.01045Z" fill="white"/>
<path d="M0.433286 6.54614C-0.397157 7.37658 0.0286196 8.79728 1.17891 9.03409L7.0105 10.2347L8.12504 9.12018L2.99212 3.9873L0.433286 6.54614Z" fill="white"/>
<path d="M10.9189 8.31653L8.31653 10.919L16.0946 19.2252L19.2252 16.0946L10.9189 8.31653Z" fill="white"/>
<path d="M21.9787 20.9836L22.0962 20.8661C22.686 20.2763 22.6699 19.3151 22.0605 18.7454L20.2538 17.0563L17.0562 20.2538L18.7454 22.0606C19.315 22.67 20.2762 22.6861 20.8661 22.0963L20.9836 21.9787L23.0048 24L24 23.0049L21.9787 20.9836Z" fill="white"/>
<path d="M1.40845 2.40393L2.40346 1.40892L3.98656 2.99202L2.99154 3.98703L1.40845 2.40393Z" fill="white"/>
</g>
<defs>
<clipPath id="clip0_3512_2593">
<rect width="24" height="24" fill="white"/>
</clipPath>
</defs>
</svg>
